<?xml version="1.0" standalone="no"?>
<!DOCTYPE svg PUBLIC "-//W3C//DTD SVG 20010904//EN"
 "http://www.w3.org/TR/2001/REC-SVG-20010904/DTD/svg10.dtd">
<svg version="1.0" xmlns="http://www.w3.org/2000/svg"
 width="205.709707pt" height="143.966419pt" viewBox="0 0 205.709707 143.966419"
 preserveAspectRatio="xMidYMid meet">
<metadata>
Created by potrace 1.12, written by Peter Selinger 2001-2015
</metadata>
<g transform="translate(-20.126623,145.716917) scale(0.100000,-0.100000)"
fill="#000000" stroke="none">
<path d="M2035 1440 c-83 -21 -320 -108 -494 -180 -68 -28 -125 -49 -128 -47
-2 3 5 33 17 67 40 118 27 175 -32 144 -45 -23 -200 -186 -297 -311 -23 -30
-42 -44 -66 -49 -39 -7 -52 -4 -47 11 2 5 -7 0 -20 -12 -13 -12 -40 -24 -60
-28 -51 -10 -50 9 4 83 100 136 258 310 258 284 0 -7 -41 -78 -91 -158 -50
-80 -89 -147 -87 -149 4 -5 157 230 190 292 21 38 23 63 7 63 -20 0 -139 -129
-242 -262 l-97 -126 -49 31 -48 32 5 71 c4 63 2 74 -17 93 -27 27 -45 26 -109
-7 -111 -57 -298 -277 -397 -468 -38 -73 -39 -74 -27 -74 4 0 18 24 31 53 73
160 290 420 394 472 63 31 81 31 101 3 19 -26 20 -49 6 -100 -10 -35 -12 -36
-45 -31 -33 5 -65 -8 -65 -28 0 -5 14 -24 31 -44 l32 -35 -25 -58 c-43 -98
-85 -203 -134 -327 -25 -66 -61 -150 -79 -186 -32 -63 -118 -169 -128 -159 -6
6 42 222 110 495 63 254 69 283 55 297 -36 36 -234 -579 -231 -719 0 -25 9 2
24 77 36 181 72 297 165 543 12 31 26 55 31 52 5 -4 5 -13 0 -23 -14 -28 -104
-404 -152 -636 -25 -118 -48 -160 -61 -111 -4 16 -5 32 -2 36 2 4 0 10 -5 13
-12 8 -19 -47 -9 -73 4 -12 14 -21 23 -21 13 0 15 -10 9 -67 -3 -38 -7 -74
-10 -81 -2 -7 -1 -26 3 -42 8 -45 26 -24 61 73 61 165 86 210 134 234 24 12
56 27 71 33 28 10 28 10 22 -20 -10 -45 6 -36 40 23 25 43 44 60 105 95 41 24
82 47 90 52 8 5 12 11 9 14 -3 3 -27 -8 -54 -25 -27 -17 -59 -35 -73 -40 -21
-8 -23 -7 -16 13 8 29 113 182 205 300 l69 90 15 -35 c8 -19 23 -66 34 -105
19 -69 19 -70 -1 -89 -19 -20 -19 -20 3 -19 27 1 36 -25 45 -131 4 -40 10 -73
13 -73 4 0 13 20 20 45 23 80 120 269 148 292 22 18 24 23 10 23 -16 0 -16 2
-2 31 9 17 14 33 11 36 -2 3 -16 -18 -30 -45 -14 -28 -35 -57 -47 -65 -11 -8
-15 -17 -9 -19 7 -2 -7 -42 -35 -103 -26 -55 -49 -102 -51 -104 -8 -9 -13 6
-23 69 -8 45 -7 67 0 77 9 10 8 13 -4 13 -9 0 -17 14 -22 36 -3 20 -17 68 -31
107 -13 40 -24 75 -24 78 0 4 26 40 58 80 l59 74 124 47 c68 26 132 51 142 54
25 9 22 -17 -9 -77 -14 -28 -23 -54 -20 -57 3 -3 22 31 42 76 42 93 20 79 324
201 315 125 500 173 550 141 12 -7 11 -13 -9 -34 -45 -48 -340 -238 -703 -453
-32 -19 -58 -36 -58 -39 0 -6 88 43 165 91 28 17 124 75 215 130 198 118 381
238 406 266 14 15 16 24 8 37 -16 25 -130 26 -219 2z m-597 -54 c2 -10 -8 -56
-23 -103 l-26 -85 -52 -23 c-90 -41 -217 -85 -217 -75 0 12 165 203 216 250
66 61 96 71 102 36z m-732 -274 c17 -11 -1 -53 -20 -46 -17 6 -29 32 -20 45 6
11 25 11 40 1z m91 -38 c43 -33 42 -44 -5 -44 -49 0 -74 18 -66 48 8 29 29 28
71 -4z m205 -86 c-45 -61 -59 -68 -67 -35 -12 46 25 85 83 86 22 1 21 -2 -16
-51z m-195 19 c2 -2 -32 -57 -75 -123 -43 -65 -105 -163 -137 -216 -32 -54
-60 -96 -62 -94 -4 4 57 176 86 240 11 27 21 52 21 56 0 4 15 41 34 83 l34 75
48 -9 c26 -5 49 -11 51 -12z m123 5 c0 -13 -12 -22 -22 -16 -10 6 -1 24 13 24
5 0 9 -4 9 -8z m-48 -19 c10 -9 18 -21 18 -27 0 -6 -23 -49 -52 -96 -92 -153
-190 -324 -216 -378 -13 -29 -36 -61 -51 -71 -38 -27 -120 -65 -126 -59 -21
20 360 648 394 648 8 0 23 -7 33 -17z m46 -76 c2 -9 -15 -40 -38 -69 -23 -29
-57 -75 -77 -101 -19 -26 -38 -46 -41 -43 -3 3 0 11 5 18 6 7 23 36 38 63 81
149 105 176 113 132z m-538 -627 c0 -6 -8 -27 -19 -48 -10 -20 -27 -64 -37
-97 -10 -33 -24 -67 -32 -75 -13 -13 -14 -6 -8 57 7 82 19 119 48 151 22 23
48 29 48 12z"/>
<path d="M1277 953 c-15 -31 -25 -58 -23 -60 2 -2 15 22 30 53 15 31 25 58 23
60 -2 2 -15 -22 -30 -53z"/>
<path d="M1288 822 c-16 -10 -28 -20 -28 -24 0 -4 16 2 35 13 34 20 43 30 28
28 -5 0 -20 -8 -35 -17z"/>
<path d="M882 592 c-34 -20 -59 -38 -54 -40 7 -2 115 58 130 73 15 15 -20 0
-76 -33z"/>
</g>
</svg>
